HIERARCHY
ROOT joint_Root
{
	OFFSET 0.0 0.0 0.0
	CHANNELS 6 Xposition Yposition Zposition Zrotation Xrotation Yrotation 
	JOINT Hips
	{
		OFFSET 4.5925 91.4895 -427.239
		CHANNELS 6 Xposition Yposition Zposition Zrotation Xrotation Yrotation 
		JOINT Spine
		{
			OFFSET 15.7357 0.0 0.0
			CHANNELS 6 Xposition Yposition Zposition Zrotation Xrotation Yrotation 
			JOINT Chest
			{
				OFFSET 8.98455 -0.406207 0.0
				CHANNELS 6 Xposition Yposition Zposition Zrotation Xrotation Yrotation 
				JOINT Neck
				{
					OFFSET 16.3773 0.0 0.0
					CHANNELS 6 Xposition Yposition Zposition Zrotation Xrotation Yrotation 
					JOINT Head
					{
						OFFSET 6.45672 0.0 0.0
						CHANNELS 6 Xposition Yposition Zposition Zrotation Xrotation Yrotation 
						End Site
						{
							OFFSET 0.0 0.0 0.0
						}
					}
				}
				JOINT Shoulder_L
				{
					OFFSET 12.9942 -0.242716 4.98039
					CHANNELS 6 Xposition Yposition Zposition Zrotation Xrotation Yrotation 
					JOINT UpperArm_L
					{
						OFFSET 5.34809 0.0 0.0
						CHANNELS 6 Xposition Yposition Zposition Zrotation Xrotation Yrotation 
						JOINT LowerArm_L
						{
							OFFSET 24.3286 1.87007e-05 0.0
							CHANNELS 6 Xposition Yposition Zposition Zrotation Xrotation Yrotation 
							JOINT Hand_L
							{
								OFFSET 22.2916 0.0 0.0
								CHANNELS 6 Xposition Yposition Zposition Zrotation Xrotation Yrotation 
								End Site
								{
									OFFSET 0.0 0.0 0.0
								}
							}
						}
					}
				}
				JOINT Shoulder_R
				{
					OFFSET 12.9945 -0.242716 -4.98039
					CHANNELS 6 Xposition Yposition Zposition Zrotation Xrotation Yrotation 
					JOINT UpperArm_R
					{
						OFFSET -5.34813 0.0 0.0
						CHANNELS 6 Xposition Yposition Zposition Zrotation Xrotation Yrotation 
						JOINT LowerArm_R
						{
							OFFSET -24.3289 0.000322201 0.0
							CHANNELS 6 Xposition Yposition Zposition Zrotation Xrotation Yrotation 
							JOINT Hand_R
							{
								OFFSET -22.2915 -0.000108084 0.0
								CHANNELS 6 Xposition Yposition Zposition Zrotation Xrotation Yrotation 
								End Site
								{
									OFFSET 0.0 0.0 0.0
								}
							}
						}
					}
				}
			}
		}
		JOINT UpperLeg_L
		{
			OFFSET -2.19248 -6.46944 0.0
			CHANNELS 6 Xposition Yposition Zposition Zrotation Xrotation Yrotation 
			JOINT LowerLeg_L
			{
				OFFSET 39.0811 0.0 -1.23785e-05
				CHANNELS 6 Xposition Yposition Zposition Zrotation Xrotation Yrotation 
				JOINT Foot_L
				{
					OFFSET 40.9854 0.0 -1.26872e-05
					CHANNELS 6 Xposition Yposition Zposition Zrotation Xrotation Yrotation 
					JOINT Toes_L
					{
						OFFSET 11.7543 0.0 0.0
						CHANNELS 6 Xposition Yposition Zposition Zrotation Xrotation Yrotation 
						End Site
						{
							OFFSET 0.0 0.0 0.0
						}
					}
				}
			}
		}
		JOINT UpperLeg_R
		{
			OFFSET -2.19251 6.46944 0.0
			CHANNELS 6 Xposition Yposition Zposition Zrotation Xrotation Yrotation 
			JOINT LowerLeg_R
			{
				OFFSET -39.0811 -0.00228153 -0.0401928
				CHANNELS 6 Xposition Yposition Zposition Zrotation Xrotation Yrotation 
				JOINT Foot_R
				{
					OFFSET -40.9854 0.0 0.0
					CHANNELS 6 Xposition Yposition Zposition Zrotation Xrotation Yrotation 
					JOINT Toes_R
					{
						OFFSET -11.7543 0.0 0.0
						CHANNELS 6 Xposition Yposition Zposition Zrotation Xrotation Yrotation 
						End Site
						{
							OFFSET 0.0 0.0 0.0
						}
					}
				}
			}
		}
	}
}
MOTION
Frames:	6
Frame Time:	0.0333333
0.000000 0.000000 0.000000 0.000000 0.000000 -0.000000 79.463200 88.882700 191.316000 -74.532600 49.448600 163.259000 15.735700 0.000005 -0.000001 46.249000 82.293600 -44.231300 8.984550 -0.406207 -0.000000 3.613790 -10.718600 4.379390 16.377300 -0.000001 -0.000001 -0.989925 4.274720 1.417150 6.456720 -0.000001 -0.000000 -5.196360 13.975100 -1.743020 12.994200 -0.242716 4.980390 -88.707900 -4.273250 -73.162000 5.348090 -0.000007 -0.000001 -58.246900 34.724900 -44.979600 24.328600 0.000019 0.000005 1.160690 -0.391454 -108.479000 22.291600 -0.000001 0.000005 11.193400 5.464310 -5.146190 12.994500 -0.242716 -4.980390 90.669100 -2.446780 -74.712900 -5.348130 -0.000001 -0.000004 -74.469600 31.844800 38.857300 -24.328900 0.000322 -0.000009 -17.603000 -4.019450 -77.538000 -22.291500 -0.000108 -0.000004 24.129700 5.659360 -15.930700 -2.192480 -6.469440 -0.000000 -174.729000 -0.105171 6.196170 39.081100 -0.000007 -0.000012 0.031824 -0.059672 28.071700 40.985400 -0.000006 -0.000013 12.646300 7.309460 -70.327700 11.754300 -0.000000 0.000003 -0.081824 -0.397028 -33.068200 -2.192510 6.469440 -0.000001 -176.785000 15.500100 150.079000 -39.081100 -0.002282 -0.040193 -0.056366 0.111903 28.068700 -40.985400 0.000008 0.000006 -8.495740 10.307300 -61.402900 -11.754300 -0.000006 -0.000006 -0.025133 -0.194221 -24.519300
0.000000 0.000000 0.000000 0.000000 0.000000 -0.000000 84.311400 87.425900 189.588000 -74.400400 48.486600 164.530000 15.735700 0.000005 -0.000001 51.801300 82.424200 -49.900900 8.984550 -0.406207 -0.000000 4.348550 -9.411460 4.161360 16.377300 -0.000001 -0.000001 -0.782536 4.077730 1.629100 6.456720 -0.000001 -0.000000 -5.957860 13.072700 -1.740190 12.994200 -0.242716 4.980390 -89.634800 -1.233820 -73.506000 5.348090 -0.000007 -0.000001 -64.169900 34.942500 -30.771900 24.328600 0.000019 0.000005 -2.890300 0.214231 -94.480300 22.291600 -0.000001 0.000005 14.972100 5.458760 -4.974380 12.994500 -0.242716 -4.980390 89.408200 2.352840 -75.859600 -5.348130 -0.000001 -0.000004 -71.760700 32.456800 32.134300 -24.328900 0.000322 -0.000009 -19.945300 -3.165690 -81.341200 -22.291500 -0.000108 -0.000004 26.618700 5.662610 -16.359600 -2.192480 -6.469440 -0.000000 -173.515000 0.790769 6.484160 39.081100 -0.000007 -0.000012 0.036654 -0.051521 35.428500 40.985400 -0.000006 -0.000013 11.499800 6.521820 -68.309700 11.754300 -0.000000 0.000003 -0.175884 -0.603470 -42.275700 -2.192510 6.469440 -0.000001 -175.695000 16.413300 149.385000 -39.081100 -0.002282 -0.040193 -0.063678 0.098977 34.083500 -40.985400 0.000008 0.000006 -5.270130 7.805160 -58.944700 -11.754300 -0.000006 -0.000006 -0.025870 -0.197870 -24.670300
0.000000 0.000000 0.000000 0.000000 0.000000 -0.000000 89.312000 85.698900 187.375000 -74.493500 48.192200 166.445000 15.735700 0.000005 -0.000001 60.429000 82.846900 -58.662200 8.984550 -0.406207 -0.000000 4.818430 -7.092450 3.831770 16.377300 -0.000001 -0.000001 -0.052166 4.009400 0.740939 6.456720 -0.000001 -0.000000 -5.961390 11.277900 -1.727950 12.994200 -0.242716 4.980390 -90.640900 2.106800 -73.082200 5.348090 -0.000007 -0.000001 -67.439400 33.444100 -19.291000 24.328600 0.000019 0.000005 -5.848800 -1.775950 -73.083500 22.291600 -0.000001 0.000005 15.328600 5.438090 -4.207440 12.994500 -0.242716 -4.980390 88.074700 7.904050 -76.263200 -5.348130 -0.000001 -0.000004 -66.812400 34.524900 22.571400 -24.328900 0.000322 -0.000009 -22.406300 -1.347590 -86.732100 -22.291500 -0.000108 -0.000004 28.465600 5.659670 -16.047800 -2.192480 -6.469440 -0.000000 -172.614000 0.494911 4.633480 39.081100 -0.000007 -0.000012 0.044068 -0.041732 46.557100 40.985400 -0.000006 -0.000013 10.135100 6.347250 -61.390000 11.754300 -0.000000 0.000003 -0.309153 -0.801466 -51.964200 -2.192510 6.469440 -0.000001 -176.744000 15.806900 149.687000 -39.081100 -0.002282 -0.040193 -0.237848 0.251230 43.823500 -40.985400 0.000008 0.000006 -4.736930 7.434680 -63.944700 -11.754300 -0.000006 -0.000006 -0.006139 -0.072088 -19.507100
0.000000 0.000000 0.000000 0.000000 0.000000 -0.000000 93.736300 84.342100 185.149000 -73.564400 49.139200 168.231000 15.735700 0.000005 -0.000001 74.388300 82.830200 -72.411500 8.984550 -0.406207 -0.000000 6.125520 -3.876750 4.157790 16.377300 -0.000001 -0.000001 0.117562 4.386330 -0.658174 6.456720 -0.000001 -0.000000 -5.335380 9.886200 -2.645120 12.994200 -0.242716 4.980390 -91.367800 4.429010 -72.818200 5.348090 -0.000007 -0.000001 -67.146200 33.029400 -11.057700 24.328600 0.000019 0.000005 3.279420 2.710470 -50.758200 22.291600 -0.000001 0.000005 15.234700 5.404170 -3.081230 12.994500 -0.242716 -4.980390 87.237400 12.166200 -77.100200 -5.348130 -0.000001 -0.000004 -59.351200 36.698100 6.751380 -24.328900 0.000322 -0.000009 -23.512000 1.898040 -94.355200 -22.291500 -0.000108 -0.000004 31.033300 5.660080 -16.067800 -2.192480 -6.469440 -0.000000 -172.305000 0.463591 -0.042721 39.081100 -0.000007 -0.000012 0.042156 -0.023764 60.584700 40.985400 -0.000006 -0.000013 8.669800 5.859630 -49.186000 11.754300 -0.000000 0.000003 -0.169833 -0.592485 -41.767300 -2.192510 6.469440 -0.000001 -177.328000 12.727600 152.697000 -39.081100 -0.002282 -0.040193 -0.319986 0.268057 50.331400 -40.985400 0.000008 0.000006 -4.467720 5.877020 -71.008500 -11.754300 -0.000006 -0.000006 -0.000048 -0.000804 -16.606500
0.000000 0.000000 0.000000 0.000000 0.000000 -0.000000 97.290100 83.536900 183.078000 -72.309800 49.070700 169.311000 15.735700 0.000005 -0.000001 81.380000 82.165400 -78.991500 8.984550 -0.406207 -0.000000 7.784460 -2.338480 4.931800 16.377300 -0.000001 -0.000001 0.345989 4.911650 -0.443496 6.456720 -0.000001 -0.000000 -5.450670 10.904400 -5.114800 12.994200 -0.242716 4.980390 -91.624000 5.289760 -72.905900 5.348090 -0.000007 -0.000001 -66.625500 36.012700 1.693380 24.328600 0.000019 0.000005 5.005380 5.125870 -44.430500 22.291600 -0.000001 0.000005 12.779900 5.417860 -3.579210 12.994500 -0.242716 -4.980390 87.430000 13.302500 -78.962300 -5.348130 -0.000001 -0.000004 -51.483600 36.020100 -16.181200 -24.328900 0.000322 -0.000009 -21.090200 4.459060 -101.404000 -22.291500 -0.000108 -0.000004 29.895200 5.656670 -15.697500 -2.192480 -6.469440 -0.000000 -171.989000 1.645300 -7.170540 39.081100 -0.000007 -0.000012 0.063968 -0.019070 73.394200 40.985400 -0.000006 -0.000013 4.182770 1.333740 -38.419000 11.754300 -0.000000 0.000003 -0.007580 -0.084581 -20.020600 -2.192510 6.469440 -0.000001 -177.395000 14.995800 156.733000 -39.081100 -0.002282 -0.040193 -0.378943 0.286904 53.104700 -40.985400 0.000008 0.000006 -3.235110 8.221950 -75.502000 -11.754300 -0.000006 -0.000006 -0.225357 -0.272078 -16.400100
0.000000 0.000000 0.000000 0.000000 0.000000 -0.000000 100.140000 83.952300 180.532000 -72.635800 49.866000 169.799000 15.735700 0.000005 -0.000001 90.530300 82.133400 -88.252400 8.984550 -0.406207 -0.000000 7.967610 0.149077 4.540860 16.377300 -0.000001 -0.000001 0.688518 5.205600 0.236970 6.456720 -0.000001 -0.000000 -5.427460 10.182100 -5.592790 12.994200 -0.242716 4.980390 -91.332300 3.977430 -71.456400 5.348090 -0.000007 -0.000001 -69.207800 44.243100 15.000200 24.328600 0.000019 0.000005 3.226590 2.987100 -47.231900 22.291600 -0.000001 0.000005 10.798000 5.471140 -5.419160 12.994500 -0.242716 -4.980390 88.145700 11.567600 -80.831900 -5.348130 -0.000001 -0.000004 -49.465400 31.330300 -35.614100 -24.328900 0.000322 -0.000009 -16.422200 5.286220 -107.369000 -22.291500 -0.000108 -0.000004 28.107700 5.661580 -16.252900 -2.192480 -6.469440 -0.000000 -174.003000 0.595139 -13.525100 39.081100 -0.000007 -0.000012 0.001238 -0.000183 81.248300 40.985400 -0.000006 -0.000013 9.166200 -5.175770 -45.530100 11.754300 -0.000000 0.000003 -0.010279 -0.105719 -20.884500 -2.192510 6.469440 -0.000001 -178.584000 15.062400 160.864000 -39.081100 -0.002282 -0.040193 -0.228790 0.184011 51.584200 -40.985400 0.000008 0.000006 -2.137620 8.875970 -77.766800 -11.754300 -0.000006 -0.000006 -0.233516 -0.282069 -16.394100
